<svg xmlns="http://www.w3.org/2000/svg" width="26" height="16" viewBox="0 0 26 16" class="style0"><style>.style0{enable-background:new 0 0 26 16}</style><style>.st0{fill:#fff}.st1{fill:#1f1f1f}.st2{fill:#2ecc71}.st3,.st4{fill-rule:evenodd;clip-rule:evenodd;fill:#1f1f1f}.st4{fill:#fff}</style><path class="st0" d="M10 6H8V4H7v2H5v1h2v2h1V7h2zm8.5-1c.8 0 1.5.7 1.5 1.5S19.3 8 18.5 8 17 7.3 17 6.5 17.7 5 18.5 5m0-1C17.1 4 16 5.1 16 6.5S17.1 9 18.5 9 21 7.9 21 6.5 19.9 4 18.5 4z"/><path class="st0" d="M19 1c3.9 0 6 9.7 6 11 0 2-.3 3-1 3-.6 0-1.9-1.3-2.8-2.2-1.4-1.4-2.8-2.8-4.2-2.8H9c-1.4 0-2.8 1.4-4.2 2.8-.9.9-2.2 2.2-2.8 2.2-.7 0-1-1-1-3C1 10.7 3.1 1 7 1c1.2 0 1.7.4 2.4.8.8.6 1.8 1.2 3.6 1.2s2.8-.6 3.6-1.2c.7-.4 1.2-.8 2.4-.8m0-1c-3 0-3 2-6 2s-3-2-6-2C2 0 0 11 0 12s0 4 2 4 5-5 7-5h8c2 0 5 5 7 5s2-3 2-4-2-12-7-12z"/></svg>