<svg xmlns="http://www.w3.org/2000/svg" width="21.3" height="21.3" viewBox="0 0 21.3 21.3" class="style0"><style>.style0{enable-background:new 0 0 21.3 21.3}</style><style>.st0{fill:#fff}.st1{fill:#1f1f1f}.st2{fill:#2ecc71}.st3{fill-rule:evenodd;clip-rule:evenodd;fill:#fff}.st4,.st5{fill:#2d2d2d}.st5{fill-rule:evenodd;clip-rule:evenodd}</style><path class="st0" d="M14.9 6.4c-1-1-2.6-1-3.5 0-1 1-1 2.6 0 3.5 1 1 2.6 1 3.5 0 1-1 1-2.6 0-3.5zm-2.8 2.8c-.6-.6-.6-1.5 0-2.1.6-.6 1.5-.6 2.1 0 .6.6.6 1.5 0 2.1-.6.6-1.5.6-2.1 0z"/><path class="st0" d="M15.3 13.6s1.5-1.2 2.1-1.9C20.9 8.1 21.3 0 21.3 0S13.2.4 9.6 3.9C9 4.6 7.7 6 7.7 6 4 6 2.1 8 1.3 9.1.2 10.6-.2 12.5.2 13.7l.3.8.5-.6c.8-.8 1.8-.8 2.4-.7l1.3 1.3-2.1 2.1 2.1 2.1 2.1-2.1 1.3 1.3c.1.6 0 1.7-.7 2.4l-.6.6.8.3c1.3.4 3.1 0 4.6-1.1 1.1-.9 3.1-2.9 3.1-6.5zM1 12.7c0-.8.3-1.9 1.1-3 .6-.9 2.1-2.4 4.9-2.6-1.5 2.1-2.7 4.1-3.3 5.2-.7-.1-1.7-.2-2.7.4zm5.8 2.5l-.7.7-1.4 1.4-.7-.7 1.4-1.4.7-.7L9.6 11l.7.7-3.5 3.5zm1.6 1.6l-.9-.9 4.2-4.2-2.1-2.2-4.2 4.2-.9-.9c.8-1.6 3.1-5.6 5.8-8.3C12.8 2 17.9 1.2 20.2 1c-.2 2.3-1 7.4-3.5 9.9-2.7 2.8-6.8 5.1-8.3 5.9zm3.2 2.4c-1.1.8-2.2 1.1-3 1.1.6-1 .5-2 .4-2.7 1.1-.6 3.1-1.8 5.2-3.3-.2 2.8-1.7 4.2-2.6 4.9z"/></svg>