<svg xmlns="http://www.w3.org/2000/svg" width="22" height="23" viewBox="0 0 22 23" class="style0"><style>.style0{enable-background:new 0 0 22 23}</style><style>.st0{fill:#fff}.st1{fill:#1f1f1f}.st2{fill:#2ecc71}.st3,.st4{fill-rule:evenodd;clip-rule:evenodd;fill:#1f1f1f}.st4{fill:#fff}</style><path class="st0" d="M21.7 9.1c-.2-.1-.4-.1-.5 0l-4 1.9c-.2.2-.3.5-.1.7.2.2.5.3.7.1l3.2-1.4v8.8l-7.5 2.7-6.3-3.4c-.1-.1-.3-.1-.5 0L1 21.2v-8.9L4 11c.2-.2.3-.5.1-.7-.1-.2-.4-.3-.7-.1L.2 11.6c-.1.1-.2.2-.2.4v10c0 .2.1.3.2.4.2.1.3.1.5 0L7 19.6l6.3 3.4c.1 0 .2.1.2.1.1 0 .2 0 .2-.1l8-3c.2-.1.3-.3.3-.4v-10c0-.3-.1-.4-.3-.5z"/><path class="st0" d="M11 1c2.8 0 5 2.2 5 5 0 3.6-3.8 9.6-5 11.3C9.8 15.6 6 9.6 6 6c0-2.8 2.2-5 5-5m0-1C7.7 0 5 2.7 5 6c0 4.5 5.4 12.2 5.6 12.4.1.1.3.2.4.2.1 0 .3-.1.4-.2.2-.2 5.6-7.9 5.6-12.4 0-3.3-2.7-6-6-6z"/><path class="st0" d="M11 5c.6 0 1 .4 1 1s-.4 1-1 1-1-.4-1-1 .4-1 1-1m0-1c-1.1 0-2 .9-2 2s.9 2 2 2 2-.9 2-2-.9-2-2-2z"/></svg>